<?xml version="1.0" standalone="no"?>
<!DOCTYPE svg PUBLIC "-//W3C//DTD SVG 1.1//EN" "http://www.w3.org/Graphics/SVG/1.1/DTD/svg11.dtd" >
<svg xmlns="http://www.w3.org/2000/svg" xmlns:xlink="http://www.w3.org/1999/xlink" version="1.1">
<metadata>
Created by FontForge 20181014 at Tue Nov 27 11:01:07 2018
 By convertio
Copyright \\\(c\\\) 2013 by Renzler Design. All rights reserved.
</metadata>
<defs>
<font id="Lovelo-Black" horiz-adv-x="671" >
  <font-face 
    font-family="Lovelo Black"
    font-weight="900"
    font-stretch="normal"
    units-per-em="1000"
    panose-1="2 0 0 0 0 0 0 0 0 0"
    ascent="750"
    descent="-250"
    x-height="715"
    cap-height="715"
    bbox="-30 -300.951 903 975"
    underline-thickness="50"
    underline-position="-100"
    unicode-range="U+0020-20AC"
  />
<missing-glyph horiz-adv-x="247" 
 />
    <glyph glyph-name=".notdef" horiz-adv-x="247" 
 />
    <glyph glyph-name="A" unicode="A" horiz-adv-x="653" 
d="M16 0l301 741h15l301 -741h-161l-29 77h-237l-28 -77h-162zM258 211h132l-65 186z" />
    <glyph glyph-name="Aacute" unicode="&#xc1;" horiz-adv-x="653" 
d="M482 906l-101 -141h-138l53 141h186zM345 724l288 -724h-161l-29 77h-237l-28 -77h-162l288 724h41zM390 211l-65 191l-67 -191h132z" />
    <glyph glyph-name="Abreve" unicode="&#x102;" horiz-adv-x="653" 
d="M325 867c25 0 46 10 46 42h94c9 -121 -88 -142 -140 -142c-49 0 -149 21 -140 142h94c0 -32 21 -42 46 -42zM346 729l287 -729h-161l-29 77h-237l-28 -77h-162l287 729h43zM390 211l-65 197l-67 -197h132z" />
    <glyph glyph-name="Acircumflex" unicode="&#xc2;" horiz-adv-x="653" 
d="M359 759l-37 47l-36 -47h-151l141 140h92l143 -140h-152zM345 724l288 -724h-161l-29 77h-237l-28 -77h-162l288 724h41zM390 211l-65 191l-67 -191h132z" />
    <glyph glyph-name="Adieresis" unicode="&#xc4;" horiz-adv-x="653" 
d="M120 826c0 47 37 82 81 82c46 0 82 -35 82 -82c0 -46 -36 -81 -82 -81c-44 1 -81 35 -81 81zM367 826c0 47 38 82 81 82c46 0 82 -35 82 -82c0 -46 -36 -80 -82 -81c-43 0 -81 35 -81 81zM345 724l288 -724h-161l-29 77h-237l-28 -77h-162l288 724h41zM390 211l-65 191
l-67 -191h132z" />
    <glyph glyph-name="Agrave" unicode="&#xc0;" horiz-adv-x="653" 
d="M347 906l53 -141h-138l-101 141h186zM345 724l288 -724h-161l-29 77h-237l-28 -77h-162l288 724h41zM390 211l-65 191l-67 -191h132z" />
    <glyph glyph-name="Amacron" unicode="&#x100;" horiz-adv-x="653" 
d="M192 899h264v-131h-264v131zM346 729l287 -729h-161l-29 77h-237l-28 -77h-162l287 729h43zM390 211l-65 197l-67 -197h132z" />
    <glyph glyph-name="Aogonek" unicode="&#x104;" horiz-adv-x="653" 
d="M317 741h15l301 -741c-46 -38 -95 -103 -75 -141c10 -20 48 -13 70 -2l9 -97c-69 -25 -162 -27 -196 39c-37 69 10 151 63 201h-32l-29 77h-237l-28 -77h-162zM390 211l-65 186l-67 -186h132z" />
    <glyph glyph-name="Aring" unicode="&#xc5;" horiz-adv-x="653" 
d="M324 851c161 0 181 -201 69 -260l240 -591h-161l-29 77h-237l-28 -77h-162l240 590c-114 58 -91 261 68 261zM325 764c-70 0 -70 -104 0 -104s72 104 0 104zM390 211l-65 186l-67 -186h132z" />
    <glyph glyph-name="Atilde" unicode="&#xc3;" horiz-adv-x="653" 
d="M153 806c19 64 58 107 114 105c64 -2 107 -77 142 -8l86 -39c-18 -65 -59 -106 -115 -104c-63 2 -107 77 -140 8zM345 724l288 -724h-161l-29 77h-237l-28 -77h-162l288 724h41zM390 211l-65 191l-67 -191h132z" />
    <glyph glyph-name="AE" unicode="&#xc6;" horiz-adv-x="795" 
d="M366 715h365v-140h-184v-144h156v-146h-156v-142h194v-143h-337v110h-165l-46 -110h-175zM404 243v257l-108 -257h108z" />
    <glyph glyph-name="B" unicode="B" horiz-adv-x="621" 
d="M80 0v716h283c127 0 206 -91 203 -217c-2 -54 -21 -110 -66 -141c47 -32 74 -87 74 -143c0 -120 -95 -215 -211 -215h-283zM224 573v-144h127c41 0 66 33 66 72c0 40 -25 72 -66 72h-127zM224 286v-143h127c41 0 72 32 72 72s-31 71 -72 71h-127z" />
    <glyph glyph-name="C" unicode="C" horiz-adv-x="602" 
d="M535 549c-27 14 -62 31 -124 31c-283 0 -283 -436 0 -436c62 0 111 18 138 32l19 -148c-44 -18 -107 -30 -157 -30c-485 0 -484 726 0 726c50 0 98 -9 141 -28z" />
    <glyph glyph-name="Cacute" unicode="&#x106;" horiz-adv-x="602" 
d="M518 916l-94 -142h-125l49 142h170zM535 549c-27 14 -62 31 -124 31c-283 0 -283 -436 0 -436c62 0 111 18 138 32l19 -148c-44 -18 -107 -30 -157 -30c-485 0 -484 726 0 726c50 0 98 -9 141 -28z" />
    <glyph glyph-name="Ccaron" unicode="&#x10c;" horiz-adv-x="602" 
d="M567 912l-143 -140h-92l-141 140h151l36 -47l37 47h152zM535 549c-27 14 -62 31 -124 31c-283 0 -283 -436 0 -436c62 0 111 18 138 32l19 -148c-44 -18 -107 -30 -157 -30c-485 0 -484 726 0 726c50 0 98 -9 141 -28z" />
    <glyph glyph-name="Ccedilla" unicode="&#xc7;" horiz-adv-x="602" 
d="M266 -146c24 -16 60 -31 92 -25c18 2 37 13 37 29c-2 40 -65 46 -103 37l22 113c-385 90 -352 716 97 716c50 0 98 -9 141 -28l-17 -147c-27 14 -62 31 -124 31c-283 0 -283 -436 0 -436c62 0 111 18 138 32l19 -148c-44 -18 -107 -30 -157 -30h-3l-5 -36
c98 -7 141 -108 78 -184c-51 -67 -169 -76 -270 -2z" />
    <glyph glyph-name="Ccircumflex" unicode="&#x108;" horiz-adv-x="602" 
d="M403 771l-37 47l-36 -47h-151l141 140h92l143 -140h-152zM535 549l17 147c-43 19 -91 28 -141 28c-484 0 -485 -726 0 -726c50 0 113 12 157 30l-19 148c-27 -14 -76 -32 -138 -32c-283 0 -283 436 0 436c62 0 97 -17 124 -31z" />
    <glyph glyph-name="Cdotaccent" unicode="&#x10a;" horiz-adv-x="602" 
d="M390 929c111 0 108 -151 0 -151c-110 0 -110 151 0 151zM535 549c-27 14 -62 31 -124 31c-283 0 -283 -436 0 -436c62 0 111 18 138 32l19 -148c-44 -18 -107 -30 -157 -30c-485 0 -484 726 0 726c50 0 98 -9 141 -28z" />
    <glyph glyph-name="D" unicode="D" horiz-adv-x="704" 
d="M293 715c476 0 476 -715 0 -715h-213v715h213zM293 572h-70v-429h70c278 0 278 429 0 429z" />
    <glyph glyph-name="Eth" unicode="&#xd0;" horiz-adv-x="704" 
d="M3 418h77v297h213c476 0 476 -715 0 -715h-213v285h-77v133zM223 572v-154h128v-133h-128v-142h70c278 0 278 429 0 429h-70z" />
    <glyph glyph-name="Dcaron" unicode="&#x10e;" horiz-adv-x="704" 
d="M489 908l-143 -140h-92l-141 140h151l36 -47l37 47h152zM293 715c476 0 476 -715 0 -715h-213v715h213zM293 572h-70v-429h70c278 0 278 429 0 429z" />
    <glyph glyph-name="Dcroat" unicode="&#x110;" horiz-adv-x="704" 
d="M3 418h77v297h213c476 0 476 -715 0 -715h-213v285h-77v133zM223 572v-154h128v-133h-128v-142h70c278 0 278 429 0 429h-70z" />
    <glyph glyph-name="E" unicode="E" horiz-adv-x="504" 
d="M450 0h-370v715h358v-143h-215v-143h188v-143h-188v-143h227v-143z" />
    <glyph glyph-name="Eacute" unicode="&#xc9;" horiz-adv-x="504" 
d="M413 879l-96 -115h-129l49 115h176zM450 0h-370v715h358v-143h-215v-143h188v-143h-188v-143h227v-143z" />
    <glyph glyph-name="Ebreve" unicode="&#x114;" horiz-adv-x="504" 
d="M264 864c25 0 46 10 46 42h94c9 -121 -88 -142 -140 -142c-49 0 -149 21 -140 142h94c0 -32 21 -42 46 -42zM450 0h-370v715h358v-143h-215v-143h188v-143h-188v-143h227v-143z" />
    <glyph glyph-name="Ecaron" unicode="&#x11a;" horiz-adv-x="504" 
d="M454 890l-139 -128h-90l-138 128h148l35 -43l36 43h148zM450 0h-370v715h358v-143h-215v-143h188v-143h-188v-143h227v-143z" />
    <glyph glyph-name="Ecircumflex" unicode="&#xca;" horiz-adv-x="504" 
d="M299 769l-37 45l-35 -45h-149l139 134h91l141 -134h-150zM450 0h-370v715h358v-143h-215v-143h188v-143h-188v-143h227v-143z" />
    <glyph glyph-name="Edieresis" unicode="&#xcb;" horiz-adv-x="504" 
d="M74 833c0 42 36 74 79 74c44 0 80 -32 80 -74s-36 -72 -80 -72c-43 1 -79 30 -79 72zM288 833c0 42 37 74 80 74c45 0 80 -32 80 -74s-35 -71 -80 -72c-43 0 -80 30 -80 72zM450 0h-370v715h358v-143h-215v-143h188v-143h-188v-143h227v-143z" />
    <glyph glyph-name="Edotaccent" unicode="&#x116;" horiz-adv-x="504" 
d="M263 912c110 0 107 -146 0 -146c-109 0 -109 146 0 146zM450 0h-370v715h358v-143h-215v-143h188v-143h-188v-143h227v-143z" />
    <glyph glyph-name="Egrave" unicode="&#xc8;" horiz-adv-x="504" 
d="M291 878l49 -115h-129l-96 115h176zM450 0h-370v715h358v-143h-215v-143h188v-143h-188v-143h227v-143z" />
    <glyph glyph-name="Emacron" unicode="&#x112;" horiz-adv-x="504" 
d="M135 896h262v-121h-262v121zM450 0h-370v715h358v-143h-215v-143h188v-143h-188v-143h227v-143z" />
    <glyph glyph-name="Eogonek" unicode="&#x118;" horiz-adv-x="504" 
d="M450 0c-59 -35 -87 -97 -70 -131c10 -19 47 -13 69 -2l9 -94c-68 -24 -159 -26 -193 38c-34 62 17 142 66 189h-251v715h358v-143h-215v-143h188v-143h-188v-143h227v-143z" />
    <glyph glyph-name="F" unicode="F" horiz-adv-x="475" 
d="M437 572h-214v-143h182v-143h-182v-286h-143v715h357v-143z" />
    <glyph glyph-name="G" unicode="G" horiz-adv-x="673" 
d="M596 44c-55 -31 -117 -48 -185 -48c-472 0 -496 707 0 725c85 3 154 -22 167 -26l-17 -145c-28 12 -74 28 -150 26c-289 -10 -276 -437 0 -437c13 0 27 2 40 4v215h145v-314z" />
    <glyph glyph-name="Gbreve" unicode="&#x11e;" horiz-adv-x="673" 
d="M378 865c25 0 46 10 46 42h94c9 -121 -88 -142 -140 -142c-49 0 -149 21 -140 142h94c0 -32 21 -42 46 -42zM596 44c-55 -31 -117 -48 -185 -48c-472 0 -496 707 0 725c85 3 154 -22 167 -26l-17 -145c-28 12 -74 28 -150 26c-289 -10 -276 -437 0 -437c13 0 27 2 40 4
v215h145v-314z" />
    <glyph glyph-name="Gcircumflex" unicode="&#x11c;" horiz-adv-x="673" 
d="M416 772l-37 47l-36 -47h-151l141 140h92l143 -140h-152zM596 44v314h-145v-215c-13 -2 -27 -4 -40 -4c-276 0 -289 427 0 437c76 2 122 -14 150 -26l17 145c-13 4 -82 29 -167 26c-496 -18 -472 -725 0 -725c68 0 130 17 185 48z" />
    <glyph glyph-name="Gdotaccent" unicode="&#x120;" horiz-adv-x="673" 
d="M391 919c112 0 109 -148 0 -148c-111 0 -111 148 0 148zM596 44c-55 -31 -117 -48 -185 -48c-472 0 -496 707 0 725c85 3 154 -22 167 -26l-17 -145c-28 12 -74 28 -150 26c-289 -10 -276 -437 0 -437c13 0 27 2 40 4v215h145v-314z" />
    <glyph glyph-name="H" unicode="H" horiz-adv-x="661" 
d="M580 0h-143v286h-214v-286h-143v715h143v-286h214v286h143v-715z" />
    <glyph glyph-name="Hbar" unicode="&#x126;" horiz-adv-x="661" 
d="M17 629h63v86h143v-86h214v86h143v-86h63v-106h-63v-523h-143v286h-214v-286h-143v523h-63v106zM437 429v94h-214v-94h214z" />
    <glyph glyph-name="Hcircumflex" unicode="&#x124;" horiz-adv-x="661" 
d="M365 772l-37 47l-36 -47h-151l141 140h92l143 -140h-152zM580 0h-143v286h-214v-286h-143v715h143v-286h214v286h143v-715z" />
    <glyph glyph-name="I" unicode="I" horiz-adv-x="304" 
d="M223 0h-143v715h143v-715z" />
    <glyph glyph-name="IJ" unicode="&#x132;" horiz-adv-x="769" 
d="M223 0h-143v715h143v-715zM336 0v143h137c41 0 72 32 72 72v500h145v-500c0 -146 -72 -215 -213 -215h-141z" />
    <glyph glyph-name="Iacute" unicode="&#xcd;" horiz-adv-x="304" 
d="M303 901l-93 -129h-126l49 129h170zM223 0h-143v715h143v-715z" />
    <glyph glyph-name="Ibreve" unicode="&#x12c;" horiz-adv-x="304" 
d="M153 868c25 0 46 10 46 42h94c9 -121 -88 -142 -140 -142c-49 0 -149 21 -140 142h94c0 -32 21 -42 46 -42zM223 0h-143v715h143v-715z" />
    <glyph glyph-name="Icircumflex" unicode="&#xce;" horiz-adv-x="304" 
d="M183 770l-35 48l-33 -48h-142l132 143h86l134 -143h-142zM223 0h-143v715h143v-715z" />
    <glyph glyph-name="Idieresis" unicode="&#xcf;" horiz-adv-x="304" 
d="M-30 849c0 46 35 80 77 80c44 0 78 -34 78 -80c0 -44 -34 -79 -78 -79c-42 1 -77 35 -77 79zM180 849c0 46 36 80 77 80c44 0 79 -34 79 -80c0 -44 -35 -78 -79 -79c-41 0 -77 35 -77 79zM223 0h-143v715h143v-715z" />
    <glyph glyph-name="Idotaccent" unicode="&#x130;" horiz-adv-x="304" 
d="M154 928c110 0 107 -157 0 -157c-108 0 -108 157 0 157zM223 0h-143v715h143v-715z" />
    <glyph glyph-name="Igrave" unicode="&#xcc;" horiz-adv-x="304" 
d="M173 901l49 -129h-126l-93 129h170zM223 0h-143v715h143v-715z" />
    <glyph glyph-name="Imacron" unicode="&#x12a;" horiz-adv-x="304" 
d="M25 902h258v-123h-258v123zM223 0h-143v715h143v-715z" />
    <glyph glyph-name="Iogonek" unicode="&#x12e;" horiz-adv-x="304" 
d="M223 0c-36 -39 -76 -100 -58 -135c10 -20 48 -13 70 -2l9 -97c-69 -25 -162 -27 -196 39c-36 66 12 145 64 195h-32v715h143v-715z" />
    <glyph glyph-name="Itilde" unicode="&#x128;" horiz-adv-x="304" 
d="M-9 811c17 56 53 93 104 92c59 -2 98 -68 130 -7l79 -35c-17 -57 -54 -93 -105 -91c-58 2 -98 68 -128 7zM223 0h-143v715h143v-715z" />
    <glyph glyph-name="J" unicode="J" horiz-adv-x="465" 
d="M32 0v143h137c41 0 72 32 72 72v500h145v-500c0 -146 -72 -215 -213 -215h-141z" />
    <glyph glyph-name="Jcircumflex" unicode="&#x134;" horiz-adv-x="465" 
d="M336 769l-37 47l-36 -47h-151l141 140h92l143 -140h-152zM32 0v143h137c41 0 72 32 72 72v500h145v-500c0 -146 -72 -215 -213 -215h-141z" />
    <glyph glyph-name="K" unicode="K" horiz-adv-x="604" 
d="M80 0v715h143v-285l180 285h167l-232 -353l252 -362h-177l-190 280v-280h-143z" />
    <glyph glyph-name="L" unicode="L" horiz-adv-x="493" 
d="M80 715h143v-572h227v-143h-370v715z" />
    <glyph glyph-name="Lacute" unicode="&#x139;" horiz-adv-x="493" 
d="M303 909l-92 -142h-123l48 142h167zM223 715v-572h227v-143h-370v715h143z" />
    <glyph glyph-name="Lcaron" unicode="&#x13d;" horiz-adv-x="493" 
d="M485 718l-73 -204h-105l40 204h138zM223 715v-572h227v-143h-370v715h143z" />
    <glyph glyph-name="Ldot" unicode="&#x13f;" horiz-adv-x="493" 
d="M223 715v-572h227v-143h-370v715h143zM379 462c110 0 107 -161 0 -161c-108 0 -108 161 0 161z" />
    <glyph glyph-name="Lslash" unicode="&#x141;" horiz-adv-x="489" 
d="M85 715h142v-289l144 48v-129l-144 -49v-152h226v-144h-368v248l-85 -29v129l85 29v338z" />
    <glyph glyph-name="M" unicode="M" horiz-adv-x="816" 
d="M408 412l282 314h45v-726h-145l1 399l-183 -192l-183 192v-399h-145v726h46z" />
    <glyph glyph-name="N" unicode="N" horiz-adv-x="704" 
d="M223 389v-389h-143v730h38l361 -420v404h144v-729h-38z" />
    <glyph glyph-name="Nacute" unicode="&#x143;" horiz-adv-x="704" 
d="M486 908l-101 -141h-135l53 141h183zM223 0h-143v730h38l361 -420v404h144v-729h-38l-362 404v-389z" />
    <glyph glyph-name="Ncaron" unicode="&#x147;" horiz-adv-x="704" 
d="M533 906l-143 -140h-92l-141 140h151l36 -47l37 47h152zM223 0h-143v730h38l361 -420v404h144v-729h-38l-362 404v-389z" />
    <glyph glyph-name="Eng" unicode="&#x14a;" horiz-adv-x="704" 
d="M223 389v-389h-143v730h38l361 -420v404h144v-748c0 -128 -87 -200 -204 -200h-40v137h36c41 0 73 23 73 63v127z" />
    <glyph glyph-name="Ntilde" unicode="&#xd1;" horiz-adv-x="704" 
d="M175 814c19 64 58 107 114 105c64 -2 107 -77 142 -8l86 -39c-18 -65 -59 -106 -115 -104c-63 2 -107 77 -140 8zM223 0h-143v730h38l361 -420v404h144v-729h-38l-362 404v-389z" />
    <glyph glyph-name="O" unicode="O" horiz-adv-x="847" 
d="M424 -10c-492 0 -492 737 0 737s492 -737 0 -737zM424 138c286 0 286 442 0 442s-286 -442 0 -442z" />
    <glyph glyph-name="Oacute" unicode="&#xd3;" horiz-adv-x="847" 
d="M597 928l-101 -141h-135l53 141h183zM424 -10c-492 0 -492 737 0 737s492 -737 0 -737zM424 138c286 0 286 442 0 442s-286 -442 0 -442z" />
    <glyph glyph-name="Obreve" unicode="&#x14e;" horiz-adv-x="847" 
d="M427 885c27 0 49 10 49 42h101c10 -123 -95 -144 -150 -144c-53 0 -160 21 -151 144h101c0 -32 23 -42 50 -42zM424 -10c-492 0 -492 737 0 737s492 -737 0 -737zM424 138c286 0 286 442 0 442s-286 -442 0 -442z" />
    <glyph glyph-name="Ocircumflex" unicode="&#xd4;" horiz-adv-x="847" 
d="M467 780l-39 46l-37 -46h-158l147 137h96l149 -137h-158zM424 -10c492 0 492 737 0 737s-492 -737 0 -737zM424 138c-286 0 -286 442 0 442s286 -442 0 -442z" />
    <glyph glyph-name="Odieresis" unicode="&#xd6;" horiz-adv-x="847" 
d="M216 853c0 45 39 78 85 78c48 0 86 -33 86 -78c0 -44 -38 -78 -86 -78c-46 1 -85 34 -85 78zM475 853c0 45 40 78 85 78c48 0 85 -33 85 -78c0 -44 -37 -77 -85 -78c-45 0 -85 34 -85 78zM424 -10c-492 0 -492 737 0 737s492 -737 0 -737zM424 138c286 0 286 442 0 442
s-286 -442 0 -442z" />
    <glyph glyph-name="Ograve" unicode="&#xd2;" horiz-adv-x="847" 
d="M460 925l53 -141h-138l-101 141h186zM424 -10c492 0 492 737 0 737s-492 -737 0 -737zM424 138c-286 0 -286 442 0 442s286 -442 0 -442z" />
    <glyph glyph-name="Ohungarumlaut" unicode="&#x150;" horiz-adv-x="847" 
d="M463 913l-93 -138h-125l49 138h169zM682 913l-93 -138h-125l49 138h169zM424 -10c-492 0 -492 737 0 737s492 -737 0 -737zM424 138c286 0 286 442 0 442s-286 -442 0 -442z" />
    <glyph glyph-name="Omacron" unicode="&#x14c;" horiz-adv-x="847" 
d="M293 917h278v-133h-278v133zM424 -10c-492 0 -492 737 0 737s492 -737 0 -737zM424 138c286 0 286 442 0 442s-286 -442 0 -442z" />
    <glyph glyph-name="Oslash" unicode="&#xd8;" horiz-adv-x="824" 
d="M580 783h147l-83 -144c225 -188 146 -643 -237 -643c-46 0 -87 6 -124 17l-48 -82h-147l83 144c-226 189 -146 644 236 644c46 0 88 -6 125 -19zM458 572c-15 4 -33 2 -51 2c-209 0 -264 -246 -160 -368zM357 142c15 -3 33 -1 50 -1c210 0 264 244 161 366z" />
    <glyph glyph-name="Otilde" unicode="&#xd5;" horiz-adv-x="847" 
d="M257 823c19 64 58 107 114 105c64 -2 107 -77 142 -8l86 -39c-18 -65 -59 -106 -115 -104c-63 2 -107 77 -140 8zM424 -10c-492 0 -492 737 0 737s492 -737 0 -737zM424 138c286 0 286 442 0 442s-286 -442 0 -442z" />
    <glyph glyph-name="OE" unicode="&#x152;" horiz-adv-x="855" 
d="M399 -5c-483 0 -483 724 0 724c24 0 46 -2 67 -4h322v-143h-202v-142h174v-140h-174v-148h212v-142h-332c-21 -5 -43 -5 -67 -5zM452 592c-14 2 -31 2 -53 2c-138 0 -208 -128 -210 -234c0 -109 69 -238 210 -238c20 0 37 0 53 2v468z" />
    <glyph glyph-name="P" unicode="P" horiz-adv-x="603" 
d="M223 0h-143v714h281c278 0 277 -441 0 -441h-138v-273zM223 412h126c96 0 96 160 0 160h-126v-160z" />
    <glyph glyph-name="Thorn" unicode="&#xde;" horiz-adv-x="603" 
d="M80 0v715h143v-125h138c278 0 277 -441 0 -441h-138v-149h-143zM349 288c96 0 96 160 0 160h-126v-160h126z" />
    <glyph glyph-name="Q" unicode="Q" horiz-adv-x="839" 
d="M592 37c-49 -25 -107 -39 -177 -39c-480 0 -480 721 0 721c357 0 449 -399 276 -603l94 -120h-158zM376 303h169l50 -64c73 128 14 335 -180 335c-279 0 -279 -432 0 -432c31 0 58 5 81 14z" />
    <glyph glyph-name="R" unicode="R" horiz-adv-x="613" 
d="M436 0l-144 273h-69v-273h-143v715h282c255 0 280 -359 70 -420l166 -295h-162zM223 412h126c97 0 97 160 0 160h-126v-160z" />
    <glyph glyph-name="Racute" unicode="&#x154;" horiz-adv-x="613" 
d="M432 906l-89 -142h-119l47 142h161zM436 0l-144 273h-69v-273h-143v715h282c255 0 280 -359 70 -420l166 -295h-162zM223 412h126c97 0 97 160 0 160h-126v-160z" />
    <glyph glyph-name="Rcaron" unicode="&#x158;" horiz-adv-x="613" 
d="M482 901l-143 -140h-92l-141 140h151l36 -47l37 47h152zM436 0l-144 273h-69v-273h-143v715h282c255 0 280 -359 70 -420l166 -295h-162zM223 412h126c97 0 97 160 0 160h-126v-160z" />
    <glyph glyph-name="S" unicode="S" horiz-adv-x="529" 
d="M47 46l18 150c82 -58 171 -60 204 -57c42 3 78 33 74 72c-3 41 -34 59 -74 73c-112 41 -212 98 -212 218s83 212 202 218c37 2 86 2 178 -30l-18 -138c-79 32 -124 31 -146 30c-51 -3 -74 -40 -71 -80c4 -40 39 -58 80 -72c111 -41 207 -105 207 -219
c0 -119 -82 -210 -216 -217c-40 -3 -129 2 -226 52z" />
    <glyph glyph-name="Sacute" unicode="&#x15a;" horiz-adv-x="529" 
d="M408 902l-88 -129h-117l46 129h159zM47 46l18 150c82 -58 171 -60 204 -57c42 3 78 33 74 72c-3 41 -34 59 -74 73c-112 41 -212 98 -212 218s83 212 202 218c37 2 86 2 178 -30l-18 -138c-79 32 -124 31 -146 30c-51 -3 -74 -40 -71 -80c4 -40 39 -58 80 -72
c111 -41 207 -105 207 -219c0 -119 -82 -210 -216 -217c-40 -3 -129 2 -226 52z" />
    <glyph glyph-name="Scaron" unicode="&#x160;" horiz-adv-x="529" 
d="M462 893l-144 -126h-93l-142 126h152l37 -42l37 42h153zM47 46l18 150c82 -58 171 -60 204 -57c42 3 78 33 74 72c-3 41 -34 59 -74 73c-112 41 -212 98 -212 218s83 212 202 218c37 2 86 2 178 -30l-18 -138c-79 32 -124 31 -146 30c-51 -3 -74 -40 -71 -80
c4 -40 39 -58 80 -72c111 -41 207 -105 207 -219c0 -119 -82 -210 -216 -217c-40 -3 -129 2 -226 52z" />
    <glyph glyph-name="Scedilla" unicode="&#x15e;" horiz-adv-x="529" 
d="M65 196c82 -58 171 -60 204 -57c42 3 78 33 74 72c-3 41 -34 59 -74 73c-112 41 -212 98 -212 218s83 212 202 218c37 2 86 2 178 -30l-18 -138c-79 32 -124 31 -146 30c-51 -3 -74 -40 -71 -80c4 -40 39 -58 80 -72c111 -41 207 -105 207 -219
c0 -108 -67 -192 -178 -212l-5 -37c91 -7 131 -101 72 -172c-47 -61 -158 -69 -252 -1l51 72c23 -15 56 -29 87 -23c17 2 34 11 34 27c-2 38 -61 42 -97 35l19 95c-45 4 -107 17 -173 51z" />
    <glyph glyph-name="Scircumflex" unicode="&#x15c;" horiz-adv-x="529" 
d="M306 769l-35 51l-35 -51h-143l134 153h87l135 -153h-143zM47 46l18 150c82 -58 171 -60 204 -57c42 3 78 33 74 72c-3 41 -34 59 -74 73c-112 41 -212 98 -212 218s83 212 202 218c37 2 86 2 178 -30l-18 -138c-79 32 -124 31 -146 30c-51 -3 -74 -40 -71 -80
c4 -40 39 -58 80 -72c111 -41 207 -105 207 -219c0 -119 -82 -210 -216 -217c-40 -3 -129 2 -226 52z" />
    <glyph glyph-name="T" unicode="T" horiz-adv-x="547" 
d="M341 0h-143v572h-178v142h499v-142h-178v-572z" />
    <glyph glyph-name="Tbar" unicode="&#x166;" horiz-adv-x="547" 
d="M99 364h99v208h-178v142h499v-142h-178v-208h106v-120h-106v-244h-143v244h-99v120z" />
    <glyph glyph-name="Tcaron" unicode="&#x164;" horiz-adv-x="547" 
d="M461 904l-143 -140h-92l-141 140h151l36 -47l37 47h152zM341 0h-143v572h-178v142h499v-142h-178v-572z" />
    <glyph glyph-name="U" unicode="U" 
d="M593 249c0 -340 -517 -340 -517 0v466h143v-465c0 -150 232 -150 232 0v465h142v-466z" />
    <glyph glyph-name="Uacute" unicode="&#xda;" 
d="M480 909l-91 -139h-124l48 139h167zM593 249c0 -340 -517 -340 -517 0v466h143v-465c0 -150 232 -150 232 0v465h142v-466z" />
    <glyph glyph-name="Ubreve" unicode="&#x16c;" 
d="M338 855c27 0 50 10 50 43h100c9 -124 -94 -146 -150 -146c-52 0 -159 22 -149 146h100c0 -33 23 -43 49 -43zM593 249c0 -340 -517 -340 -517 0v466h143v-465c0 -150 232 -150 232 0v465h142v-466z" />
    <glyph glyph-name="Ucircumflex" unicode="&#xdb;" 
d="M370 781l-37 47l-36 -47h-151l141 140h92l143 -140h-152zM593 249c0 -340 -517 -340 -517 0v466h143v-465c0 -150 232 -150 232 0v465h142v-466z" />
    <glyph glyph-name="Udieresis" unicode="&#xdc;" 
d="M143 842c0 44 35 76 77 76c43 0 77 -32 77 -76c0 -42 -34 -74 -77 -74c-42 1 -77 32 -77 74zM377 842c0 44 36 76 77 76c43 0 77 -32 77 -76c0 -42 -34 -73 -77 -74c-41 0 -77 32 -77 74zM593 249c0 -340 -517 -340 -517 0v466h143v-465c0 -150 232 -150 232 0v465h142
v-466z" />
    <glyph glyph-name="Ugrave" unicode="&#xd9;" 
d="M362 909l48 -139h-124l-91 139h167zM593 249c0 -340 -517 -340 -517 0v466h143v-465c0 -150 232 -150 232 0v465h142v-466z" />
    <glyph glyph-name="Uhungarumlaut" unicode="&#x170;" 
d="M367 910l-87 -137h-118l46 137h159zM573 910l-87 -137h-118l46 137h159zM593 249c0 -340 -517 -340 -517 0v466h143v-465c0 -150 232 -150 232 0v465h142v-466z" />
    <glyph glyph-name="Umacron" unicode="&#x16a;" 
d="M207 894h255v-117h-255v117zM593 249c0 -340 -517 -340 -517 0v466h143v-465c0 -150 232 -150 232 0v465h142v-466z" />
    <glyph glyph-name="Uogonek" unicode="&#x172;" 
d="M593 249c0 -83 -31 -146 -78 -188l3 1c-69 -60 -93 -144 -72 -185c10 -20 50 -20 72 -9l9 -97c-69 -25 -162 -27 -196 39c-34 63 -7 136 37 186c-140 -16 -292 68 -292 253v466h143v-465c0 -150 232 -150 232 0v465h142v-466z" />
    <glyph glyph-name="Uring" unicode="&#x16e;" 
d="M335 975c178 0 174 -232 0 -232s-174 232 0 232zM336 901c-66 0 -66 -87 0 -87s68 87 0 87zM593 249c0 -340 -517 -340 -517 0v466h143v-465c0 -150 232 -150 232 0v465h142v-466z" />
    <glyph glyph-name="Utilde" unicode="&#x168;" 
d="M166 814c18 61 57 103 111 101c63 -2 105 -74 139 -8l84 -37c-18 -63 -58 -102 -112 -100c-62 2 -105 74 -137 7zM593 249c0 -340 -517 -340 -517 0v466h143v-465c0 -150 232 -150 232 0v465h142v-466z" />
    <glyph glyph-name="V" unicode="V" horiz-adv-x="637" 
d="M302 -15l-296 730h165l95 -238l52 -148l51 143l96 243h165l-296 -730h-32z" />
    <glyph glyph-name="W" unicode="W" horiz-adv-x="910" 
d="M299 -15l-293 730h161l144 -365l140 358h7l140 -358l144 365h161l-292 -727h-26l-131 317l-130 -320h-25z" />
    <glyph glyph-name="Wcircumflex" unicode="&#x174;" horiz-adv-x="910" 
d="M495 767l-41 49l-40 -49h-170l158 148h103l160 -148h-170zM324 -15l130 320l131 -317h26l292 727h-161l-144 -365l-140 358h-7l-140 -358l-144 365h-161l293 -730h25z" />
    <glyph glyph-name="X" unicode="X" horiz-adv-x="631" 
d="M6 0l225 381l-194 335h173l108 -199l107 199h169l-195 -335l225 -381h-169l-137 245l-138 -245h-174z" />
    <glyph glyph-name="Y" unicode="Y" horiz-adv-x="649" 
d="M255 0v322l-249 393h174l146 -246l146 246h175l-250 -393v-322h-142z" />
    <glyph glyph-name="Yacute" unicode="&#xdd;" horiz-adv-x="649" 
d="M482 913l-101 -141h-135l53 141h183zM255 322l-249 393h174l146 -246l146 246h175l-250 -393v-322h-142v322z" />
    <glyph glyph-name="Ycircumflex" unicode="&#x176;" horiz-adv-x="649" 
d="M363 776l-40 49l-39 -49h-164l153 148h100l154 -148h-164zM255 0h142v322l250 393h-175l-146 -246l-146 246h-174l249 -393v-322z" />
    <glyph glyph-name="Ydieresis" unicode="&#x178;" horiz-adv-x="649" 
d="M119 843c0 47 37 82 81 82c46 0 82 -35 82 -82c0 -46 -36 -81 -82 -81c-44 1 -81 35 -81 81zM366 843c0 47 38 82 81 82c46 0 82 -35 82 -82c0 -46 -36 -80 -82 -81c-43 0 -81 35 -81 81zM255 322l-249 393h174l146 -246l146 246h175l-250 -393v-322h-142v322z" />
    <glyph glyph-name="Z" unicode="Z" horiz-adv-x="535" 
d="M501 0h-479c86 192 172 385 258 576h-220v139h433l-258 -571h266v-144z" />
    <glyph glyph-name="Zacute" unicode="&#x179;" horiz-adv-x="535" 
d="M423 916l-92 -147h-122l48 147h166zM22 0c86 192 172 385 258 576h-220v139h433l-258 -571h266v-144h-479z" />
    <glyph glyph-name="Zcaron" unicode="&#x17d;" horiz-adv-x="535" 
d="M478 892l-146 -128h-94l-143 128h153l37 -43l38 43h155zM22 0c86 192 172 385 258 576h-220v139h433l-258 -571h266v-144h-479z" />
    <glyph glyph-name="Zdotaccent" unicode="&#x17b;" horiz-adv-x="535" 
d="M282 928c116 0 113 -154 0 -154c-114 0 -114 154 0 154zM22 0c86 192 172 385 258 576h-220v139h433l-258 -571h266v-144h-479z" />
    <glyph glyph-name="uni0122" unicode="&#x122;" horiz-adv-x="673" 
d="M596 44c-55 -31 -117 -48 -185 -48c-472 0 -496 707 0 725c85 3 154 -22 167 -26l-17 -145c-28 12 -74 28 -150 26c-289 -10 -276 -437 0 -437c13 0 27 2 40 4v215h145v-314zM284 -260l38 204h148l-70 -204h-116z" />
    <glyph glyph-name="uni0136" unicode="&#x136;" horiz-adv-x="604" 
d="M80 0v715h143v-285l180 285h167l-232 -353l252 -362h-177l-190 280v-280h-143zM322 -254l70 204h-148l-38 -204h116z" />
    <glyph glyph-name="uni013B" unicode="&#x13b;" horiz-adv-x="493" 
d="M223 715v-572h227v-143h-370v715h143zM159 -247l38 190h146l-69 -190h-115z" />
    <glyph glyph-name="uni0145" unicode="&#x145;" horiz-adv-x="704" 
d="M223 0h-143v730h38l361 -420v404h144v-729h-38l-362 404v-389zM277 -244l38 190h146l-69 -190h-115z" />
    <glyph glyph-name="uni0156" unicode="&#x156;" horiz-adv-x="613" 
d="M436 0l-144 273h-69v-273h-143v715h282c255 0 280 -359 70 -420l166 -295h-162zM223 412h126c97 0 97 160 0 160h-126v-160zM222 -247l38 190h146l-69 -190h-115z" />
    <glyph glyph-name="uni0162" unicode="&#x162;" horiz-adv-x="547" 
d="M318 0l-7 -51c90 -7 130 -106 72 -180c-47 -66 -155 -74 -248 -2l51 76c22 -16 55 -30 84 -24c17 2 34 12 34 29c-2 38 -60 44 -95 36l21 116h-32v572h-178v142h499v-142h-178v-572h-23z" />
    <glyph glyph-name="a" unicode="a" horiz-adv-x="653" 
d="M16 0l301 741h15l301 -741h-161l-29 77h-237l-28 -77h-162zM258 211h132l-65 186z" />
    <glyph glyph-name="aacute" unicode="&#xe1;" horiz-adv-x="653" 
d="M482 906l-101 -141h-138l53 141h186zM345 724l288 -724h-161l-29 77h-237l-28 -77h-162l288 724h41zM390 211l-65 191l-67 -191h132z" />
    <glyph glyph-name="abreve" unicode="&#x103;" horiz-adv-x="653" 
d="M325 867c25 0 46 10 46 42h94c9 -121 -88 -142 -140 -142c-49 0 -149 21 -140 142h94c0 -32 21 -42 46 -42zM346 729l287 -729h-161l-29 77h-237l-28 -77h-162l287 729h43zM390 211l-65 197l-67 -197h132z" />
    <glyph glyph-name="acircumflex" unicode="&#xe2;" horiz-adv-x="653" 
d="M359 759l-37 47l-36 -47h-151l141 140h92l143 -140h-152zM345 724l288 -724h-161l-29 77h-237l-28 -77h-162l288 724h41zM390 211l-65 191l-67 -191h132z" />
    <glyph glyph-name="adieresis" unicode="&#xe4;" horiz-adv-x="653" 
d="M120 826c0 47 37 82 81 82c46 0 82 -35 82 -82c0 -46 -36 -81 -82 -81c-44 1 -81 35 -81 81zM367 826c0 47 38 82 81 82c46 0 82 -35 82 -82c0 -46 -36 -80 -82 -81c-43 0 -81 35 -81 81zM345 724l288 -724h-161l-29 77h-237l-28 -77h-162l288 724h41zM390 211l-65 191
l-67 -191h132z" />
    <glyph glyph-name="agrave" unicode="&#xe0;" horiz-adv-x="653" 
d="M347 906l53 -141h-138l-101 141h186zM345 724l288 -724h-161l-29 77h-237l-28 -77h-162l288 724h41zM390 211l-65 191l-67 -191h132z" />
    <glyph glyph-name="amacron" unicode="&#x101;" horiz-adv-x="653" 
d="M192 899h264v-131h-264v131zM346 729l287 -729h-161l-29 77h-237l-28 -77h-162l287 729h43zM390 211l-65 197l-67 -197h132z" />
    <glyph glyph-name="aogonek" unicode="&#x105;" horiz-adv-x="653" 
d="M317 741h15l301 -741c-46 -38 -95 -103 -75 -141c10 -20 48 -13 70 -2l9 -97c-69 -25 -162 -27 -196 39c-37 69 10 151 63 201h-32l-29 77h-237l-28 -77h-162zM390 211l-65 186l-67 -186h132z" />
    <glyph glyph-name="aring" unicode="&#xe5;" horiz-adv-x="653" 
d="M324 851c161 0 181 -201 69 -260l240 -591h-161l-29 77h-237l-28 -77h-162l240 590c-114 58 -91 261 68 261zM325 764c-70 0 -70 -104 0 -104s72 104 0 104zM390 211l-65 186l-67 -186h132z" />
    <glyph glyph-name="atilde" unicode="&#xe3;" horiz-adv-x="653" 
d="M153 806c19 64 58 107 114 105c64 -2 107 -77 142 -8l86 -39c-18 -65 -59 -106 -115 -104c-63 2 -107 77 -140 8zM345 724l288 -724h-161l-29 77h-237l-28 -77h-162l288 724h41zM390 211l-65 191l-67 -191h132z" />
    <glyph glyph-name="ae" unicode="&#xe6;" horiz-adv-x="795" 
d="M366 715h365v-140h-184v-144h156v-146h-156v-142h194v-143h-337v110h-165l-46 -110h-175zM404 243v257l-108 -257h108z" />
    <glyph glyph-name="b" unicode="b" horiz-adv-x="621" 
d="M80 0v716h283c127 0 206 -91 203 -217c-2 -54 -21 -110 -66 -141c47 -32 74 -87 74 -143c0 -120 -95 -215 -211 -215h-283zM224 573v-144h127c41 0 66 33 66 72c0 40 -25 72 -66 72h-127zM224 286v-143h127c41 0 72 32 72 72s-31 71 -72 71h-127z" />
    <glyph glyph-name="c" unicode="c" horiz-adv-x="602" 
d="M535 549c-27 14 -62 31 -124 31c-283 0 -283 -436 0 -436c62 0 111 18 138 32l19 -148c-44 -18 -107 -30 -157 -30c-485 0 -484 726 0 726c50 0 98 -9 141 -28z" />
    <glyph glyph-name="cacute" unicode="&#x107;" horiz-adv-x="602" 
d="M518 916l-94 -142h-125l49 142h170zM535 549c-27 14 -62 31 -124 31c-283 0 -283 -436 0 -436c62 0 111 18 138 32l19 -148c-44 -18 -107 -30 -157 -30c-485 0 -484 726 0 726c50 0 98 -9 141 -28z" />
    <glyph glyph-name="ccaron" unicode="&#x10d;" horiz-adv-x="602" 
d="M567 912l-143 -140h-92l-141 140h151l36 -47l37 47h152zM535 549c-27 14 -62 31 -124 31c-283 0 -283 -436 0 -436c62 0 111 18 138 32l19 -148c-44 -18 -107 -30 -157 -30c-485 0 -484 726 0 726c50 0 98 -9 141 -28z" />
    <glyph glyph-name="ccedilla" unicode="&#xe7;" horiz-adv-x="602" 
d="M266 -146c24 -16 60 -31 92 -25c18 2 37 13 37 29c-2 40 -65 46 -103 37l22 113c-385 90 -352 716 97 716c50 0 98 -9 141 -28l-17 -147c-27 14 -62 31 -124 31c-283 0 -283 -436 0 -436c62 0 111 18 138 32l19 -148c-44 -18 -107 -30 -157 -30h-3l-5 -36
c98 -7 141 -108 78 -184c-51 -67 -169 -76 -270 -2z" />
    <glyph glyph-name="ccircumflex" unicode="&#x109;" horiz-adv-x="602" 
d="M403 771l-37 47l-36 -47h-151l141 140h92l143 -140h-152zM535 549l17 147c-43 19 -91 28 -141 28c-484 0 -485 -726 0 -726c50 0 113 12 157 30l-19 148c-27 -14 -76 -32 -138 -32c-283 0 -283 436 0 436c62 0 97 -17 124 -31z" />
    <glyph glyph-name="cdotaccent" unicode="&#x10b;" horiz-adv-x="602" 
d="M390 929c111 0 108 -151 0 -151c-110 0 -110 151 0 151zM535 549c-27 14 -62 31 -124 31c-283 0 -283 -436 0 -436c62 0 111 18 138 32l19 -148c-44 -18 -107 -30 -157 -30c-485 0 -484 726 0 726c50 0 98 -9 141 -28z" />
    <glyph glyph-name="d" unicode="d" horiz-adv-x="704" 
d="M293 715c476 0 476 -715 0 -715h-213v715h213zM293 572h-70v-429h70c278 0 278 429 0 429z" />
    <glyph glyph-name="eth" unicode="&#xf0;" horiz-adv-x="704" 
d="M3 418h77v297h213c476 0 476 -715 0 -715h-213v285h-77v133zM223 572v-154h128v-133h-128v-142h70c278 0 278 429 0 429h-70z" />
    <glyph glyph-name="dcaron" unicode="&#x10f;" horiz-adv-x="704" 
d="M489 908l-143 -140h-92l-141 140h151l36 -47l37 47h152zM293 715c476 0 476 -715 0 -715h-213v715h213zM293 572h-70v-429h70c278 0 278 429 0 429z" />
    <glyph glyph-name="dcroat" unicode="&#x111;" horiz-adv-x="704" 
d="M3 418h77v297h213c476 0 476 -715 0 -715h-213v285h-77v133zM223 572v-154h128v-133h-128v-142h70c278 0 278 429 0 429h-70z" />
    <glyph glyph-name="e" unicode="e" horiz-adv-x="504" 
d="M450 0h-370v715h358v-143h-215v-143h188v-143h-188v-143h227v-143z" />
    <glyph glyph-name="eacute" unicode="&#xe9;" horiz-adv-x="504" 
d="M413 879l-96 -115h-129l49 115h176zM450 0h-370v715h358v-143h-215v-143h188v-143h-188v-143h227v-143z" />
    <glyph glyph-name="ebreve" unicode="&#x115;" horiz-adv-x="504" 
d="M264 864c25 0 46 10 46 42h94c9 -121 -88 -142 -140 -142c-49 0 -149 21 -140 142h94c0 -32 21 -42 46 -42zM450 0h-370v715h358v-143h-215v-143h188v-143h-188v-143h227v-143z" />
    <glyph glyph-name="ecaron" unicode="&#x11b;" horiz-adv-x="504" 
d="M454 890l-139 -128h-90l-138 128h148l35 -43l36 43h148zM450 0h-370v715h358v-143h-215v-143h188v-143h-188v-143h227v-143z" />
    <glyph glyph-name="ecircumflex" unicode="&#xea;" horiz-adv-x="504" 
d="M299 769l-37 45l-35 -45h-149l139 134h91l141 -134h-150zM450 0h-370v715h358v-143h-215v-143h188v-143h-188v-143h227v-143z" />
    <glyph glyph-name="edieresis" unicode="&#xeb;" horiz-adv-x="504" 
d="M74 833c0 42 36 74 79 74c44 0 80 -32 80 -74s-36 -72 -80 -72c-43 1 -79 30 -79 72zM288 833c0 42 37 74 80 74c45 0 80 -32 80 -74s-35 -71 -80 -72c-43 0 -80 30 -80 72zM450 0h-370v715h358v-143h-215v-143h188v-143h-188v-143h227v-143z" />
    <glyph glyph-name="edotaccent" unicode="&#x117;" horiz-adv-x="504" 
d="M263 912c110 0 107 -146 0 -146c-109 0 -109 146 0 146zM450 0h-370v715h358v-143h-215v-143h188v-143h-188v-143h227v-143z" />
    <glyph glyph-name="egrave" unicode="&#xe8;" horiz-adv-x="504" 
d="M291 878l49 -115h-129l-96 115h176zM450 0h-370v715h358v-143h-215v-143h188v-143h-188v-143h227v-143z" />
    <glyph glyph-name="emacron" unicode="&#x113;" horiz-adv-x="504" 
d="M135 896h262v-121h-262v121zM450 0h-370v715h358v-143h-215v-143h188v-143h-188v-143h227v-143z" />
    <glyph glyph-name="eogonek" unicode="&#x119;" horiz-adv-x="504" 
d="M450 0c-59 -35 -87 -97 -70 -131c10 -19 47 -13 69 -2l9 -94c-68 -24 -159 -26 -193 38c-34 62 17 142 66 189h-251v715h358v-143h-215v-143h188v-143h-188v-143h227v-143z" />
    <glyph glyph-name="f" unicode="f" horiz-adv-x="475" 
d="M437 572h-214v-143h182v-143h-182v-286h-143v715h357v-143z" />
    <glyph glyph-name="g" unicode="g" horiz-adv-x="673" 
d="M596 44c-55 -31 -117 -48 -185 -48c-472 0 -496 707 0 725c85 3 154 -22 167 -26l-17 -145c-28 12 -74 28 -150 26c-289 -10 -276 -437 0 -437c13 0 27 2 40 4v215h145v-314z" />
    <glyph glyph-name="gbreve" unicode="&#x11f;" horiz-adv-x="673" 
d="M378 865c25 0 46 10 46 42h94c9 -121 -88 -142 -140 -142c-49 0 -149 21 -140 142h94c0 -32 21 -42 46 -42zM596 44c-55 -31 -117 -48 -185 -48c-472 0 -496 707 0 725c85 3 154 -22 167 -26l-17 -145c-28 12 -74 28 -150 26c-289 -10 -276 -437 0 -437c13 0 27 2 40 4
v215h145v-314z" />
    <glyph glyph-name="gcircumflex" unicode="&#x11d;" horiz-adv-x="673" 
d="M416 772l-37 47l-36 -47h-151l141 140h92l143 -140h-152zM596 44v314h-145v-215c-13 -2 -27 -4 -40 -4c-276 0 -289 427 0 437c76 2 122 -14 150 -26l17 145c-13 4 -82 29 -167 26c-496 -18 -472 -725 0 -725c68 0 130 17 185 48z" />
    <glyph glyph-name="gdotaccent" unicode="&#x121;" horiz-adv-x="673" 
d="M391 919c112 0 109 -148 0 -148c-111 0 -111 148 0 148zM596 44c-55 -31 -117 -48 -185 -48c-472 0 -496 707 0 725c85 3 154 -22 167 -26l-17 -145c-28 12 -74 28 -150 26c-289 -10 -276 -437 0 -437c13 0 27 2 40 4v215h145v-314z" />
    <glyph glyph-name="h" unicode="h" horiz-adv-x="661" 
d="M580 0h-143v286h-214v-286h-143v715h143v-286h214v286h143v-715z" />
    <glyph glyph-name="hbar" unicode="&#x127;" horiz-adv-x="661" 
d="M17 629h63v86h143v-86h214v86h143v-86h63v-106h-63v-523h-143v286h-214v-286h-143v523h-63v106zM437 429v94h-214v-94h214z" />
    <glyph glyph-name="hcircumflex" unicode="&#x125;" horiz-adv-x="661" 
d="M365 772l-37 47l-36 -47h-151l141 140h92l143 -140h-152zM580 0h-143v286h-214v-286h-143v715h143v-286h214v286h143v-715z" />
    <glyph glyph-name="i" unicode="i" horiz-adv-x="304" 
d="M223 0h-143v715h143v-715z" />
    <glyph glyph-name="dotlessi" unicode="&#x131;" horiz-adv-x="304" 
d="M223 0h-143v715h143v-715z" />
    <glyph glyph-name="iacute" unicode="&#xed;" horiz-adv-x="304" 
d="M303 901l-93 -129h-126l49 129h170zM223 0h-143v715h143v-715z" />
    <glyph glyph-name="ibreve" unicode="&#x12d;" horiz-adv-x="304" 
d="M153 868c25 0 46 10 46 42h94c9 -121 -88 -142 -140 -142c-49 0 -149 21 -140 142h94c0 -32 21 -42 46 -42zM223 0h-143v715h143v-715z" />
    <glyph glyph-name="icircumflex" unicode="&#xee;" horiz-adv-x="304" 
d="M183 770l-35 48l-33 -48h-142l132 143h86l134 -143h-142zM223 0h-143v715h143v-715z" />
    <glyph glyph-name="idieresis" unicode="&#xef;" horiz-adv-x="304" 
d="M-30 849c0 46 35 80 77 80c44 0 78 -34 78 -80c0 -44 -34 -79 -78 -79c-42 1 -77 35 -77 79zM180 849c0 46 36 80 77 80c44 0 79 -34 79 -80c0 -44 -35 -78 -79 -79c-41 0 -77 35 -77 79zM223 0h-143v715h143v-715z" />
    <glyph glyph-name="igrave" unicode="&#xec;" horiz-adv-x="304" 
d="M173 901l49 -129h-126l-93 129h170zM223 0h-143v715h143v-715z" />
    <glyph glyph-name="ij" unicode="&#x133;" horiz-adv-x="769" 
d="M223 0h-143v715h143v-715zM336 0v143h137c41 0 72 32 72 72v500h145v-500c0 -146 -72 -215 -213 -215h-141z" />
    <glyph glyph-name="imacron" unicode="&#x12b;" horiz-adv-x="304" 
d="M25 902h258v-123h-258v123zM223 0h-143v715h143v-715z" />
    <glyph glyph-name="iogonek" unicode="&#x12f;" horiz-adv-x="304" 
d="M223 0c-36 -39 -76 -100 -58 -135c10 -20 48 -13 70 -2l9 -97c-69 -25 -162 -27 -196 39c-36 66 12 145 64 195h-32v715h143v-715z" />
    <glyph glyph-name="itilde" unicode="&#x129;" horiz-adv-x="304" 
d="M-9 811c17 56 53 93 104 92c59 -2 98 -68 130 -7l79 -35c-17 -57 -54 -93 -105 -91c-58 2 -98 68 -128 7zM223 0h-143v715h143v-715z" />
    <glyph glyph-name="j" unicode="j" horiz-adv-x="465" 
d="M32 0v143h137c41 0 73 32 73 72v500h142v-500c0 -119 -94 -215 -211 -215h-141z" />
    <glyph glyph-name="jcircumflex" unicode="&#x135;" horiz-adv-x="465" 
d="M336 769l-37 47l-36 -47h-151l141 140h92l143 -140h-152zM32 0v143h137c41 0 72 32 72 72v500h145v-500c0 -146 -72 -215 -213 -215h-141z" />
    <glyph glyph-name="k" unicode="k" horiz-adv-x="604" 
d="M80 0v715h143v-285l180 285h167l-232 -353l252 -362h-177l-190 280v-280h-143z" />
    <glyph glyph-name="kgreenlandic" unicode="&#x138;" horiz-adv-x="604" 
d="M80 0v715h143v-285l180 285h167l-232 -353l252 -362h-177l-190 280v-280h-143z" />
    <glyph glyph-name="l" unicode="l" horiz-adv-x="493" 
d="M80 715h143v-572h227v-143h-370v715z" />
    <glyph glyph-name="lacute" unicode="&#x13a;" horiz-adv-x="493" 
d="M303 909l-92 -142h-123l48 142h167zM223 715v-572h227v-143h-370v715h143z" />
    <glyph glyph-name="lcaron" unicode="&#x13e;" horiz-adv-x="493" 
d="M485 718l-73 -204h-105l40 204h138zM223 715v-572h227v-143h-370v715h143z" />
    <glyph glyph-name="ldot" unicode="&#x140;" horiz-adv-x="493" 
d="M223 715v-572h227v-143h-370v715h143zM379 462c110 0 107 -161 0 -161c-108 0 -108 161 0 161z" />
    <glyph glyph-name="lslash" unicode="&#x142;" horiz-adv-x="489" 
d="M85 715h142v-289l144 48v-129l-144 -49v-152h226v-144h-368v248l-85 -29v129l85 29v338z" />
    <glyph glyph-name="m" unicode="m" horiz-adv-x="816" 
d="M408 412l282 314h45v-726h-145l1 399l-183 -192l-183 192v-399h-145v726h46z" />
    <glyph glyph-name="n" unicode="n" horiz-adv-x="704" 
d="M223 389v-389h-143v730h38l361 -420v404h144v-729h-38z" />
    <glyph glyph-name="nacute" unicode="&#x144;" horiz-adv-x="704" 
d="M486 908l-101 -141h-135l53 141h183zM223 0h-143v730h38l361 -420v404h144v-729h-38l-362 404v-389z" />
    <glyph glyph-name="napostrophe" unicode="&#x149;" horiz-adv-x="704" 
d="M223 389v-389h-143v730h38l361 -420v404h144v-729h-38z" />
    <glyph glyph-name="ncaron" unicode="&#x148;" horiz-adv-x="704" 
d="M533 906l-143 -140h-92l-141 140h151l36 -47l37 47h152zM223 0h-143v730h38l361 -420v404h144v-729h-38l-362 404v-389z" />
    <glyph glyph-name="eng" unicode="&#x14b;" horiz-adv-x="704" 
d="M223 389v-389h-143v730h38l361 -420v404h144v-748c0 -128 -87 -200 -204 -200h-40v137h36c41 0 73 23 73 63v127z" />
    <glyph glyph-name="ntilde" unicode="&#xf1;" horiz-adv-x="704" 
d="M175 814c19 64 58 107 114 105c64 -2 107 -77 142 -8l86 -39c-18 -65 -59 -106 -115 -104c-63 2 -107 77 -140 8zM223 0h-143v730h38l361 -420v404h144v-729h-38l-362 404v-389z" />
    <glyph glyph-name="o" unicode="o" horiz-adv-x="847" 
d="M424 -10c-492 0 -492 737 0 737s492 -737 0 -737zM424 138c286 0 286 442 0 442s-286 -442 0 -442z" />
    <glyph glyph-name="oacute" unicode="&#xf3;" horiz-adv-x="847" 
d="M597 928l-101 -141h-135l53 141h183zM424 -10c-492 0 -492 737 0 737s492 -737 0 -737zM424 138c286 0 286 442 0 442s-286 -442 0 -442z" />
    <glyph glyph-name="obreve" unicode="&#x14f;" horiz-adv-x="847" 
d="M427 885c27 0 49 10 49 42h101c10 -123 -95 -144 -150 -144c-53 0 -160 21 -151 144h101c0 -32 23 -42 50 -42zM424 -10c-492 0 -492 737 0 737s492 -737 0 -737zM424 138c286 0 286 442 0 442s-286 -442 0 -442z" />
    <glyph glyph-name="ocircumflex" unicode="&#xf4;" horiz-adv-x="847" 
d="M467 780l-39 46l-37 -46h-158l147 137h96l149 -137h-158zM424 -10c492 0 492 737 0 737s-492 -737 0 -737zM424 138c-286 0 -286 442 0 442s286 -442 0 -442z" />
    <glyph glyph-name="odieresis" unicode="&#xf6;" horiz-adv-x="847" 
d="M216 853c0 45 39 78 85 78c48 0 86 -33 86 -78c0 -44 -38 -78 -86 -78c-46 1 -85 34 -85 78zM475 853c0 45 40 78 85 78c48 0 85 -33 85 -78c0 -44 -37 -77 -85 -78c-45 0 -85 34 -85 78zM424 -10c-492 0 -492 737 0 737s492 -737 0 -737zM424 138c286 0 286 442 0 442
s-286 -442 0 -442z" />
    <glyph glyph-name="ograve" unicode="&#xf2;" horiz-adv-x="847" 
d="M460 925l53 -141h-138l-101 141h186zM424 -10c492 0 492 737 0 737s-492 -737 0 -737zM424 138c-286 0 -286 442 0 442s286 -442 0 -442z" />
    <glyph glyph-name="ohungarumlaut" unicode="&#x151;" horiz-adv-x="847" 
d="M463 913l-93 -138h-125l49 138h169zM682 913l-93 -138h-125l49 138h169zM424 -10c-492 0 -492 737 0 737s492 -737 0 -737zM424 138c286 0 286 442 0 442s-286 -442 0 -442z" />
    <glyph glyph-name="omacron" unicode="&#x14d;" horiz-adv-x="847" 
d="M293 917h278v-133h-278v133zM424 -10c-492 0 -492 737 0 737s492 -737 0 -737zM424 138c286 0 286 442 0 442s-286 -442 0 -442z" />
    <glyph glyph-name="oslash" unicode="&#xf8;" horiz-adv-x="824" 
d="M580 783h147l-83 -144c225 -188 146 -643 -237 -643c-46 0 -87 6 -124 17l-48 -82h-147l83 144c-226 189 -146 644 236 644c46 0 88 -6 125 -19zM458 572c-15 4 -33 2 -51 2c-209 0 -264 -246 -160 -368zM357 142c15 -3 33 -1 50 -1c210 0 264 244 161 366z" />
    <glyph glyph-name="otilde" unicode="&#xf5;" horiz-adv-x="847" 
d="M257 823c19 64 58 107 114 105c64 -2 107 -77 142 -8l86 -39c-18 -65 -59 -106 -115 -104c-63 2 -107 77 -140 8zM424 -10c-492 0 -492 737 0 737s492 -737 0 -737zM424 138c286 0 286 442 0 442s-286 -442 0 -442z" />
    <glyph glyph-name="oe" unicode="&#x153;" horiz-adv-x="855" 
d="M399 -5c-483 0 -483 724 0 724c24 0 46 -2 67 -4h322v-143h-202v-142h174v-140h-174v-148h212v-142h-332c-21 -5 -43 -5 -67 -5zM452 592c-14 2 -31 2 -53 2c-138 0 -208 -128 -210 -234c0 -109 69 -238 210 -238c20 0 37 0 53 2v468z" />
    <glyph glyph-name="p" unicode="p" horiz-adv-x="603" 
d="M223 0h-143v714h281c278 0 277 -441 0 -441h-138v-273zM223 412h126c96 0 96 160 0 160h-126v-160z" />
    <glyph glyph-name="thorn" unicode="&#xfe;" horiz-adv-x="603" 
d="M80 0v715h143v-125h138c278 0 277 -441 0 -441h-138v-149h-143zM349 288c96 0 96 160 0 160h-126v-160h126z" />
    <glyph glyph-name="q" unicode="q" horiz-adv-x="839" 
d="M592 37c-49 -25 -107 -39 -177 -39c-480 0 -480 721 0 721c357 0 449 -399 276 -603l94 -120h-158zM376 303h169l50 -64c73 128 14 335 -180 335c-279 0 -279 -432 0 -432c31 0 58 5 81 14z" />
    <glyph glyph-name="r" unicode="r" horiz-adv-x="613" 
d="M436 0l-144 273h-69v-273h-143v715h282c255 0 280 -359 70 -420l166 -295h-162zM223 412h126c97 0 97 160 0 160h-126v-160z" />
    <glyph glyph-name="racute" unicode="&#x155;" horiz-adv-x="613" 
d="M432 906l-89 -142h-119l47 142h161zM436 0l-144 273h-69v-273h-143v715h282c255 0 280 -359 70 -420l166 -295h-162zM223 412h126c97 0 97 160 0 160h-126v-160z" />
    <glyph glyph-name="rcaron" unicode="&#x159;" horiz-adv-x="613" 
d="M482 901l-143 -140h-92l-141 140h151l36 -47l37 47h152zM436 0l-144 273h-69v-273h-143v715h282c255 0 280 -359 70 -420l166 -295h-162zM223 412h126c97 0 97 160 0 160h-126v-160z" />
    <glyph glyph-name="s" unicode="s" horiz-adv-x="529" 
d="M47 46l18 150c82 -58 171 -60 204 -57c42 3 78 33 74 72c-3 41 -34 59 -74 73c-112 41 -212 98 -212 218s83 212 202 218c37 2 86 2 178 -30l-18 -138c-79 32 -124 31 -146 30c-51 -3 -74 -40 -71 -80c4 -40 39 -58 80 -72c111 -41 207 -105 207 -219
c0 -119 -82 -210 -216 -217c-40 -3 -129 2 -226 52z" />
    <glyph glyph-name="sacute" unicode="&#x15b;" horiz-adv-x="529" 
d="M408 902l-88 -129h-117l46 129h159zM47 46l18 150c82 -58 171 -60 204 -57c42 3 78 33 74 72c-3 41 -34 59 -74 73c-112 41 -212 98 -212 218s83 212 202 218c37 2 86 2 178 -30l-18 -138c-79 32 -124 31 -146 30c-51 -3 -74 -40 -71 -80c4 -40 39 -58 80 -72
c111 -41 207 -105 207 -219c0 -119 -82 -210 -216 -217c-40 -3 -129 2 -226 52z" />
    <glyph glyph-name="scaron" unicode="&#x161;" horiz-adv-x="529" 
d="M460 890l-144 -126h-93l-142 126h152l37 -42l37 42h153zM47 46l18 150c82 -58 171 -60 204 -57c42 3 78 33 74 72c-3 41 -34 59 -74 73c-112 41 -212 98 -212 218s83 212 202 218c37 2 86 2 178 -30l-18 -138c-79 32 -124 31 -146 30c-51 -3 -74 -40 -71 -80
c4 -40 39 -58 80 -72c111 -41 207 -105 207 -219c0 -119 -82 -210 -216 -217c-40 -3 -129 2 -226 52z" />
    <glyph glyph-name="scedilla" unicode="&#x15f;" horiz-adv-x="529" 
d="M65 196c82 -58 171 -60 204 -57c42 3 78 33 74 72c-3 41 -34 59 -74 73c-112 41 -212 98 -212 218s83 212 202 218c37 2 86 2 178 -30l-18 -138c-79 32 -124 31 -146 30c-51 -3 -74 -40 -71 -80c4 -40 39 -58 80 -72c111 -41 207 -105 207 -219
c0 -108 -67 -192 -178 -212l-5 -37c91 -7 131 -101 72 -172c-47 -61 -158 -69 -252 -1l51 72c23 -15 56 -29 87 -23c17 2 34 11 34 27c-2 38 -61 42 -97 35l19 95c-45 4 -107 17 -173 51z" />
    <glyph glyph-name="scircumflex" unicode="&#x15d;" horiz-adv-x="529" 
d="M306 769l-35 51l-35 -51h-143l134 153h87l135 -153h-143zM47 46l18 150c82 -58 171 -60 204 -57c42 3 78 33 74 72c-3 41 -34 59 -74 73c-112 41 -212 98 -212 218s83 212 202 218c37 2 86 2 178 -30l-18 -138c-79 32 -124 31 -146 30c-51 -3 -74 -40 -71 -80
c4 -40 39 -58 80 -72c111 -41 207 -105 207 -219c0 -119 -82 -210 -216 -217c-40 -3 -129 2 -226 52z" />
    <glyph glyph-name="longs" unicode="&#x17f;" horiz-adv-x="475" 
d="M437 572h-214v-572h-143v715h357v-143z" />
    <glyph glyph-name="t" unicode="t" horiz-adv-x="547" 
d="M341 0h-143v572h-178v142h499v-142h-178v-572z" />
    <glyph glyph-name="tbar" unicode="&#x167;" horiz-adv-x="547" 
d="M99 364h99v208h-178v142h499v-142h-178v-208h106v-120h-106v-244h-143v244h-99v120z" />
    <glyph glyph-name="tcaron" unicode="&#x165;" horiz-adv-x="547" 
d="M461 904l-143 -140h-92l-141 140h151l36 -47l37 47h152zM341 0h-143v572h-178v142h499v-142h-178v-572z" />
    <glyph glyph-name="u" unicode="u" 
d="M593 249c0 -340 -517 -340 -517 0v466h143v-465c0 -150 232 -150 232 0v465h142v-466z" />
    <glyph glyph-name="uacute" unicode="&#xfa;" 
d="M480 909l-91 -139h-124l48 139h167zM593 249c0 -340 -517 -340 -517 0v466h143v-465c0 -150 232 -150 232 0v465h142v-466z" />
    <glyph glyph-name="ubreve" unicode="&#x16d;" 
d="M338 855c27 0 50 10 50 43h100c9 -124 -94 -146 -150 -146c-52 0 -159 22 -149 146h100c0 -33 23 -43 49 -43zM593 249c0 -340 -517 -340 -517 0v466h143v-465c0 -150 232 -150 232 0v465h142v-466z" />
    <glyph glyph-name="ucircumflex" unicode="&#xfb;" 
d="M370 781l-37 47l-36 -47h-151l141 140h92l143 -140h-152zM593 249c0 -340 -517 -340 -517 0v466h143v-465c0 -150 232 -150 232 0v465h142v-466z" />
    <glyph glyph-name="udieresis" unicode="&#xfc;" 
d="M143 842c0 44 35 76 77 76c43 0 77 -32 77 -76c0 -42 -34 -74 -77 -74c-42 1 -77 32 -77 74zM377 842c0 44 36 76 77 76c43 0 77 -32 77 -76c0 -42 -34 -73 -77 -74c-41 0 -77 32 -77 74zM593 249c0 -340 -517 -340 -517 0v466h143v-465c0 -150 232 -150 232 0v465h142
v-466z" />
    <glyph glyph-name="ugrave" unicode="&#xf9;" 
d="M362 909l48 -139h-124l-91 139h167zM593 249c0 -340 -517 -340 -517 0v466h143v-465c0 -150 232 -150 232 0v465h142v-466z" />
    <glyph glyph-name="uhungarumlaut" unicode="&#x171;" 
d="M367 910l-87 -137h-118l46 137h159zM573 910l-87 -137h-118l46 137h159zM593 249c0 -340 -517 -340 -517 0v466h143v-465c0 -150 232 -150 232 0v465h142v-466z" />
    <glyph glyph-name="umacron" unicode="&#x16b;" 
d="M207 894h255v-117h-255v117zM593 249c0 -340 -517 -340 -517 0v466h143v-465c0 -150 232 -150 232 0v465h142v-466z" />
    <glyph glyph-name="uni0123" unicode="&#x123;" horiz-adv-x="673" 
d="M596 44c-55 -31 -117 -48 -185 -48c-472 0 -496 707 0 725c85 3 154 -22 167 -26l-17 -145c-28 12 -74 28 -150 26c-289 -10 -276 -437 0 -437c13 0 27 2 40 4v215h145v-314zM284 -260l38 204h148l-70 -204h-116z" />
    <glyph glyph-name="uni0137" unicode="&#x137;" horiz-adv-x="604" 
d="M80 0v715h143v-285l180 285h167l-232 -353l252 -362h-177l-190 280v-280h-143zM322 -254l70 204h-148l-38 -204h116z" />
    <glyph glyph-name="uni013C" unicode="&#x13c;" horiz-adv-x="493" 
d="M223 715v-572h227v-143h-370v715h143zM159 -247l38 190h146l-69 -190h-115z" />
    <glyph glyph-name="uni0146" unicode="&#x146;" horiz-adv-x="704" 
d="M223 0h-143v730h38l361 -420v404h144v-729h-38l-362 404v-389zM277 -244l38 190h146l-69 -190h-115z" />
    <glyph glyph-name="uni0157" unicode="&#x157;" horiz-adv-x="613" 
d="M436 0l-144 273h-69v-273h-143v715h282c255 0 280 -359 70 -420l166 -295h-162zM223 412h126c97 0 97 160 0 160h-126v-160zM222 -247l38 190h146l-69 -190h-115z" />
    <glyph glyph-name="uni0163" unicode="&#x163;" horiz-adv-x="547" 
d="M318 0l-7 -51c90 -7 130 -106 72 -180c-47 -66 -155 -74 -248 -2l51 76c22 -16 55 -30 84 -24c17 2 34 12 34 29c-2 38 -60 44 -95 36l21 116h-32v572h-178v142h499v-142h-178v-572h-23z" />
    <glyph glyph-name="uogonek" unicode="&#x173;" 
d="M593 249c0 -83 -31 -146 -78 -188l3 1c-69 -60 -93 -144 -72 -185c10 -20 50 -20 72 -9l9 -97c-69 -25 -162 -27 -196 39c-34 63 -7 136 37 186c-140 -16 -292 68 -292 253v466h143v-465c0 -150 232 -150 232 0v465h142v-466z" />
    <glyph glyph-name="uring" unicode="&#x16f;" 
d="M335 975c178 0 174 -232 0 -232s-174 232 0 232zM336 901c-66 0 -66 -87 0 -87s68 87 0 87zM593 249c0 -340 -517 -340 -517 0v466h143v-465c0 -150 232 -150 232 0v465h142v-466z" />
    <glyph glyph-name="utilde" unicode="&#x169;" 
d="M166 814c18 61 57 103 111 101c63 -2 105 -74 139 -8l84 -37c-18 -63 -58 -102 -112 -100c-62 2 -105 74 -137 7zM593 249c0 -340 -517 -340 -517 0v466h143v-465c0 -150 232 -150 232 0v465h142v-466z" />
    <glyph glyph-name="v" unicode="v" horiz-adv-x="637" 
d="M302 -15l-296 730h165l95 -238l52 -148l51 143l96 243h165l-296 -730h-32z" />
    <glyph glyph-name="w" unicode="w" horiz-adv-x="910" 
d="M299 -15l-293 730h161l144 -365l140 358h7l140 -358l144 365h161l-292 -727h-26l-131 317l-130 -320h-25z" />
    <glyph glyph-name="wcircumflex" unicode="&#x175;" horiz-adv-x="910" 
d="M495 767l-41 49l-40 -49h-170l158 148h103l160 -148h-170zM324 -15l130 320l131 -317h26l292 727h-161l-144 -365l-140 358h-7l-140 -358l-144 365h-161l293 -730h25z" />
    <glyph glyph-name="x" unicode="x" horiz-adv-x="631" 
d="M6 0l225 381l-194 335h173l108 -199l107 199h169l-195 -335l225 -381h-169l-137 245l-138 -245h-174z" />
    <glyph glyph-name="y" unicode="y" horiz-adv-x="649" 
d="M255 0v322l-249 393h174l146 -246l146 246h175l-250 -393v-322h-142z" />
    <glyph glyph-name="yacute" unicode="&#xfd;" horiz-adv-x="649" 
d="M482 913l-101 -141h-135l53 141h183zM255 322l-249 393h174l146 -246l146 246h175l-250 -393v-322h-142v322z" />
    <glyph glyph-name="ycircumflex" unicode="&#x177;" horiz-adv-x="649" 
d="M363 776l-40 49l-39 -49h-164l153 148h100l154 -148h-164zM255 0h142v322l250 393h-175l-146 -246l-146 246h-174l249 -393v-322z" />
    <glyph glyph-name="ydieresis" unicode="&#xff;" horiz-adv-x="649" 
d="M119 843c0 47 37 82 81 82c46 0 82 -35 82 -82c0 -46 -36 -81 -82 -81c-44 1 -81 35 -81 81zM366 843c0 47 38 82 81 82c46 0 82 -35 82 -82c0 -46 -36 -80 -82 -81c-43 0 -81 35 -81 81zM255 322l-249 393h174l146 -246l146 246h175l-250 -393v-322h-142v322z" />
    <glyph glyph-name="z" unicode="z" horiz-adv-x="535" 
d="M501 0h-479c86 192 172 385 258 576h-220v139h433l-258 -571h266v-144z" />
    <glyph glyph-name="zacute" unicode="&#x17a;" horiz-adv-x="535" 
d="M423 916l-92 -147h-122l48 147h166zM22 0c86 192 172 385 258 576h-220v139h433l-258 -571h266v-144h-479z" />
    <glyph glyph-name="zcaron" unicode="&#x17e;" horiz-adv-x="535" 
d="M478 892l-146 -128h-94l-143 128h153l37 -43l38 43h155zM22 0c86 192 172 385 258 576h-220v139h433l-258 -571h266v-144h-479z" />
    <glyph glyph-name="zdotaccent" unicode="&#x17c;" horiz-adv-x="535" 
d="M282 928c116 0 113 -154 0 -154c-114 0 -114 154 0 154zM22 0c86 192 172 385 258 576h-220v139h433l-258 -571h266v-144h-479z" />
    <glyph glyph-name="zero" unicode="0" horiz-adv-x="597" 
d="M297 -10c-176 0 -245 165 -245 368s69 367 245 367c178 0 246 -164 246 -367s-68 -368 -246 -368zM297 125c81 0 108 104 108 233c0 128 -27 233 -108 233c-79 0 -106 -105 -106 -233c0 -129 27 -233 106 -233z" />
    <glyph glyph-name="one" unicode="1" horiz-adv-x="370" 
d="M30 571v143h259v-714h-142v571h-117z" />
    <glyph glyph-name="two" unicode="2" horiz-adv-x="521" 
d="M273 424c38 54 36 83 36 83c0 40 -32 70 -74 72c-63 4 -142 -37 -165 -57l-35 138c55 40 142 68 212 65c210 -11 280 -195 160 -362l-141 -218h212v-145h-472z" />
    <glyph glyph-name="three" unicode="3" horiz-adv-x="500" 
d="M162 292l-3 146h69c43 0 75 26 74 67c-3 105 -178 85 -234 56l-22 135c45 18 117 32 188 29c129 -8 218 -98 221 -220c1 -56 -18 -102 -76 -140c57 -33 82 -96 83 -152c3 -121 -72 -212 -211 -219c-71 -4 -177 13 -222 32l16 145c61 -30 268 -72 265 42
c-1 40 -36 79 -79 79h-69z" />
    <glyph glyph-name="four" unicode="4" horiz-adv-x="540" 
d="M437 1h-143v179h-298l203 535h150l-146 -392h91v121l143 96v-217h78v-143h-78v-179z" />
    <glyph glyph-name="five" unicode="5" horiz-adv-x="525" 
d="M211 453c180 -16 272 -78 272 -243c0 -119 -81 -209 -215 -216c-37 -2 -134 0 -228 32l13 142c222 -76 286 -15 285 45c0 84 -53 110 -271 126v376h364v-137h-220v-125z" />
    <glyph glyph-name="six" unicode="6" horiz-adv-x="507" 
d="M258 412c125 1 208 -73 208 -207c0 -116 -79 -215 -217 -213c-172 4 -251 168 -187 323l166 399h155zM325 206c4 101 -151 104 -150 2c1 -96 145 -99 150 -2z" />
    <glyph glyph-name="seven" unicode="7" horiz-adv-x="488" 
d="M61 0l243 579h-288v135h491l-292 -714h-154z" />
    <glyph glyph-name="eight" unicode="8" horiz-adv-x="522" 
d="M470 505c0 -59 -21 -112 -68 -147c49 -36 69 -86 69 -147c0 -143 -94 -219 -215 -219s-218 75 -218 219c0 61 19 111 68 147c-46 35 -68 88 -68 147c0 143 107 218 215 218s217 -75 217 -218zM254 429c39 0 77 25 77 75c0 51 -38 75 -77 75s-78 -24 -78 -75
c0 -50 39 -75 78 -75zM254 134c45 0 78 35 78 77c0 43 -33 77 -78 77s-79 -34 -79 -77c0 -42 34 -77 79 -77z" />
    <glyph glyph-name="nine" unicode="9" horiz-adv-x="512" 
d="M247 301c-124 -1 -207 74 -207 207c0 117 79 216 217 213c173 -3 250 -168 187 -323l-167 -398h-154zM184 507c-4 -96 144 -99 143 -3c0 93 -139 95 -143 3z" />
    <glyph glyph-name="period" unicode="." horiz-adv-x="244" 
d="M110 154c110 0 107 -161 0 -161c-108 0 -108 161 0 161z" />
    <glyph glyph-name="comma" unicode="," horiz-adv-x="240" 
d="M205 110l-78 -226h-112l42 226h148z" />
    <glyph glyph-name="colon" unicode=":" horiz-adv-x="231" 
d="M110 446c110 0 107 -161 0 -161c-108 0 -108 161 0 161zM110 154c110 0 107 -161 0 -161c-108 0 -108 161 0 161z" />
    <glyph glyph-name="semicolon" unicode=";" horiz-adv-x="231" 
d="M110 446c110 0 107 -161 0 -161c-108 0 -108 161 0 161zM194 104l-78 -226h-112l42 226h148z" />
    <glyph glyph-name="ellipsis" unicode="&#x2026;" horiz-adv-x="732" 
d="M110 154c110 0 107 -161 0 -161c-108 0 -108 161 0 161zM354 154c110 0 107 -161 0 -161c-108 0 -108 161 0 161zM598 154c110 0 107 -161 0 -161c-108 0 -108 161 0 161z" />
    <glyph glyph-name="exclam" unicode="!" horiz-adv-x="276" 
d="M64 715h154v-265c-6 -78 -12 -165 -20 -236h-113c-8 71 -14 158 -21 236v265zM223 73c0 -106 -164 -106 -164 0s164 106 164 0z" />
    <glyph glyph-name="exclamdown" unicode="&#xa1;" horiz-adv-x="276" 
d="M52 427c0 106 164 106 164 0s-164 -106 -164 0zM211 -215h-154v265c6 78 12 165 20 236h113c8 -71 14 -158 21 -236v-265z" />
    <glyph glyph-name="question" unicode="?" horiz-adv-x="480" 
d="M160 206c8 128 150 261 150 304c11 108 -152 114 -151 0h-137c-15 282 427 293 429 20c1 -137 -134 -180 -149 -324h-142zM316 69c0 108 -167 108 -167 0c0 -106 167 -106 167 0z" />
    <glyph glyph-name="questiondown" unicode="&#xbf;" horiz-adv-x="480" 
d="M142 446c0 106 167 106 167 0c0 -108 -167 -108 -167 0zM298 309c-8 -128 -150 -261 -150 -304c-11 -108 152 -114 151 0h137c15 -282 -427 -293 -429 -20c-1 137 134 180 149 324h142z" />
    <glyph glyph-name="periodcentered" unicode="&#xb7;" horiz-adv-x="244" 
d="M110 424c110 0 107 -161 0 -161c-108 0 -108 161 0 161z" />
    <glyph glyph-name="bullet" unicode="&#x2022;" horiz-adv-x="293" 
d="M142 467c168 0 164 -246 0 -246s-164 246 0 246z" />
    <glyph glyph-name="slash" unicode="/" horiz-adv-x="422" 
d="M148 0h-148l281 715h148z" />
    <glyph glyph-name="hyphen" unicode="-" horiz-adv-x="454" 
d="M38 408h364v-133h-364v133z" />
    <glyph glyph-name="endash" unicode="&#x2013;" horiz-adv-x="538" 
d="M38 408h452v-133h-452v133z" />
    <glyph glyph-name="emdash" unicode="&#x2014;" horiz-adv-x="618" 
d="M38 408h541v-133h-541v133z" />
    <glyph glyph-name="quotesinglbase" unicode="&#x201a;" horiz-adv-x="240" 
d="M205 110l-78 -226h-112l42 226h148z" />
    <glyph glyph-name="quotedblbase" unicode="&#x201e;" horiz-adv-x="455" 
d="M205 110l-78 -226h-112l42 226h148zM427 110l-78 -226h-112l42 226h148z" />
    <glyph glyph-name="quotedblleft" unicode="&#x201c;" horiz-adv-x="394" 
d="M15 502l76 213h109l-47 -213h-138zM202 502l67 213h109l-41 -213h-135z" />
    <glyph glyph-name="quotedblright" unicode="&#x201d;" horiz-adv-x="394" 
d="M187 714l-67 -213h-109l41 213h135zM374 714l-76 -213h-109l47 213h138z" />
    <glyph glyph-name="quoteleft" unicode="&#x2018;" horiz-adv-x="224" 
d="M15 502l76 213h109l-41 -213h-144z" />
    <glyph glyph-name="quoteright" unicode="&#x2019;" horiz-adv-x="209" 
d="M200 716l-76 -213h-109l41 213h144z" />
    <glyph glyph-name="quotedbl" unicode="&#x22;" horiz-adv-x="390" 
d="M36 714h130l-15 -220h-115v220zM236 714h130l-15 -220h-115v220z" />
    <glyph glyph-name="quotesingle" unicode="'" horiz-adv-x="200" 
d="M36 714h130l-15 -220h-115v220z" />
    <glyph glyph-name="space" unicode=" " horiz-adv-x="284" 
 />
    <glyph glyph-name="Euro" unicode="&#x20ac;" horiz-adv-x="511" 
d="M-5 332h62c-1 15 -1 30 -1 46h-61v91h72c39 139 154 255 348 255c19 0 37 -1 55 -4l-8 -144c-14 2 -28 4 -47 4c-94 0 -156 -48 -187 -111h133v-91h-156c-1 -16 0 -31 2 -46h154v-91h-124c34 -57 94 -97 181 -97c20 0 39 2 56 5l9 -146c-22 -3 -45 -5 -65 -5
c-188 0 -304 109 -346 243h-77v91z" />
    <glyph glyph-name="dollar" unicode="$" horiz-adv-x="529" 
d="M65 196c82 -58 171 -60 204 -57c42 3 78 33 74 72c-3 41 -34 59 -74 73c-112 41 -212 98 -212 218c0 101 59 182 149 209v96h127v-90c27 -4 61 -12 104 -27l-18 -138c-79 32 -124 31 -146 30c-51 -3 -74 -40 -71 -80c4 -40 39 -58 80 -72c111 -41 207 -105 207 -219
c0 -100 -58 -181 -156 -208v-97h-127v91c-44 5 -100 18 -159 49z" />
    <glyph glyph-name="yen" unicode="&#xa5;" horiz-adv-x="649" 
d="M255 0v162h-138v101h138v45h-138v101h83l-194 306h174l146 -246l146 246h175l-195 -306h73v-101h-128v-45h128v-101h-128v-162h-142z" />
    <glyph glyph-name="acute" unicode="&#xb4;" horiz-adv-x="319" 
d="M283 719l-101 -141h-135l53 141h183z" />
    <glyph glyph-name="breve" unicode="&#x2d8;" horiz-adv-x="366" 
d="M185 680c25 0 46 10 46 42h94c9 -121 -88 -142 -140 -142c-49 0 -149 21 -140 142h94c0 -32 21 -42 46 -42z" />
    <glyph glyph-name="caron" unicode="&#x2c7;" horiz-adv-x="447" 
d="M405 717l-143 -140h-92l-141 140h151l36 -47l37 47h152z" />
    <glyph glyph-name="cedilla" unicode="&#xb8;" horiz-adv-x="394" 
d="M83 -163c24 -17 60 -33 92 -26c18 2 37 13 37 31c-2 42 -65 48 -103 39l24 130h95l-8 -59c98 -7 141 -115 78 -196c-51 -71 -169 -80 -270 -2z" />
    <glyph glyph-name="circumflex" unicode="&#x2c6;" horiz-adv-x="438" 
d="M253 587l-37 47l-36 -47h-151l141 140h92l143 -140h-152z" />
    <glyph glyph-name="dieresis" unicode="&#xa8;" horiz-adv-x="510" 
d="M53 634c0 47 37 82 81 82c46 0 82 -35 82 -82c0 -46 -36 -81 -82 -81c-44 1 -81 35 -81 81zM300 634c0 47 38 82 81 82c46 0 82 -35 82 -82c0 -46 -36 -80 -82 -81c-43 0 -81 35 -81 81z" />
    <glyph glyph-name="dotaccent" unicode="&#x2d9;" horiz-adv-x="244" 
d="M110 724c110 0 107 -161 0 -161c-108 0 -108 161 0 161z" />
    <glyph glyph-name="grave" unicode="`" horiz-adv-x="351" 
d="M246 714l53 -141h-138l-101 141h186z" />
    <glyph glyph-name="hungarumlaut" unicode="&#x2dd;" horiz-adv-x="529" 
d="M265 719l-93 -138h-125l49 138h169zM484 719l-93 -138h-125l49 138h169z" />
    <glyph glyph-name="macron" unicode="&#xaf;" horiz-adv-x="367" 
d="M50 714h264v-131h-264v131z" />
    <glyph glyph-name="ogonek" unicode="&#x2db;" horiz-adv-x="318" 
d="M223 13c-30 -37 -83 -109 -63 -148c10 -20 48 -13 70 -2l9 -97c-69 -25 -162 -27 -196 39c-39 72 26 159 81 208h99z" />
    <glyph glyph-name="ring" unicode="&#x2da;" horiz-adv-x="358" 
d="M181 724c189 0 184 -276 0 -276c-185 0 -185 276 0 276zM182 637c-70 0 -70 -104 0 -104s72 104 0 104z" />
    <glyph glyph-name="tilde" unicode="&#x2dc;" horiz-adv-x="443" 
d="M48 624c19 64 58 107 114 105c64 -2 107 -77 142 -8l86 -39c-18 -65 -59 -106 -115 -104c-63 2 -107 77 -140 8z" />
    </font>
</defs>
</svg>
